{
	"asset":{
		"generator":"Khronos glTF Blender I/O v4.2.60",
		"version":"2.0"
	},
	"extensionsUsed":[
		"KHR_materials_specular"
	],
	"scene":0,
	"scenes":[
		{
			"name":"Scene",
			"nodes":[
				0,
				1
			]
		}
	],
	"nodes":[
		{
			"mesh":0,
			"name":"modelo_ordonez",
			"rotation":[
				-0.11089086532592773,
				0.10418304800987244,
				0.05009058862924576,
				0.9870866537094116
			],
			"translation":[
				0.02351626753807068,
				-0.339968204498291,
				0.004826366901397705
			]
		},
		{
			"name":"B\u00e9zierCircle",
			"scale":[
				13.478312492370605,
				13.478312492370605,
				13.478312492370605
			],
			"translation":[
				-0.12261748313903809,
				4.917267799377441,
				0.2462940216064453
			]
		}
	],
	"materials":[
		{
			"doubleSided":true,
			"extensions":{
				"KHR_materials_specular":{
					"specularFactor":0
				}
			},
			"name":"modelo_ordonez",
			"pbrMetallicRoughness":{
				"baseColorTexture":{
					"index":0
				},
				"metallicFactor":0
			}
		}
	],
	"meshes":[
		{
			"name":"modelo_ordonez",
			"primitives":[
				{
					"attributes":{
						"POSITION":0,
						"NORMAL":1,
						"TEXCOORD_0":2,
						"COLOR_0":3,
						"COLOR_1":4
					},
					"indices":5,
					"material":0
				}
			]
		}
	],
	"textures":[
		{
			"sampler":0,
			"source":0
		}
	],
	"images":[
		{
			"mimeType":"image/png",
			"name":"modelo_ordonez",
			"uri":"modelo_ordonez.png"
		}
	],
	"accessors":[
		{
			"bufferView":0,
			"componentType":5126,
			"count":969832,
			"max":[
				1.8869086503982544,
				1.9538445472717285,
				1.7805873155593872
			],
			"min":[
				-1.9298152923583984,
				-1.4385051727294922,
				-2.0069055557250977
			],
			"type":"VEC3"
		},
		{
			"bufferView":1,
			"componentType":5126,
			"count":969832,
			"type":"VEC3"
		},
		{
			"bufferView":2,
			"componentType":5126,
			"count":969832,
			"type":"VEC2"
		},
		{
			"bufferView":3,
			"componentType":5121,
			"count":969832,
			"normalized":true,
			"type":"VEC4"
		},
		{
			"bufferView":4,
			"componentType":5126,
			"count":969832,
			"type":"VEC3"
		},
		{
			"bufferView":5,
			"componentType":5125,
			"count":969972,
			"type":"SCALAR"
		}
	],
	"bufferViews":[
		{
			"buffer":0,
			"byteLength":11637984,
			"byteOffset":0,
			"target":34962
		},
		{
			"buffer":0,
			"byteLength":11637984,
			"byteOffset":11637984,
			"target":34962
		},
		{
			"buffer":0,
			"byteLength":7758656,
			"byteOffset":23275968,
			"target":34962
		},
		{
			"buffer":0,
			"byteLength":3879328,
			"byteOffset":31034624,
			"target":34962
		},
		{
			"buffer":0,
			"byteLength":11637984,
			"byteOffset":34913952,
			"target":34962
		},
		{
			"buffer":0,
			"byteLength":3879888,
			"byteOffset":46551936,
			"target":34963
		}
	],
	"samplers":[
		{
			"magFilter":9729,
			"minFilter":9987
		}
	],
	"buffers":[
		{
			"byteLength":50431824,
			"uri":"modeloordonez.bin"
		}
	]
}
