{
	"asset":{
		"generator":"Khronos glTF Blender I/O v4.2.60",
		"version":"2.0"
	},
	"extensionsUsed":[
		"KHR_materials_specular"
	],
	"scene":0,
	"scenes":[
		{
			"name":"Scene",
			"nodes":[
				0,
				1
			]
		}
	],
	"nodes":[
		{
			"mesh":0,
			"name":"modelo_espinoza",
			"rotation":[
				0.28122439980506897,
				-0.8000539541244507,
				-0.4649478793144226,
				0.25426360964775085
			],
			"scale":[
				0.2503845691680908,
				0.25042924284935,
				0.2500280439853668
			],
			"translation":[
				-2.440387725830078,
				10.453805923461914,
				-4.423671245574951
			]
		},
		{
			"name":"B\u00e9zierCircle",
			"scale":[
				65.33740234375,
				65.33740234375,
				65.33740234375
			],
			"translation":[
				-2.582932710647583,
				14.379753112792969,
				-0.9786921739578247
			]
		}
	],
	"materials":[
		{
			"doubleSided":true,
			"extensions":{
				"KHR_materials_specular":{
					"specularFactor":0
				}
			},
			"name":"modelo_espinoza",
			"pbrMetallicRoughness":{
				"baseColorTexture":{
					"index":0
				},
				"metallicFactor":0
			}
		}
	],
	"meshes":[
		{
			"name":"modelo_espinoza",
			"primitives":[
				{
					"attributes":{
						"POSITION":0,
						"NORMAL":1,
						"TEXCOORD_0":2,
						"COLOR_0":3,
						"COLOR_1":4
					},
					"indices":5,
					"material":0
				}
			]
		}
	],
	"textures":[
		{
			"sampler":0,
			"source":0
		}
	],
	"images":[
		{
			"mimeType":"image/jpeg",
			"name":"modelo_espinoza",
			"uri":"modelo_espinoza.jpg"
		}
	],
	"accessors":[
		{
			"bufferView":0,
			"componentType":5126,
			"count":5851419,
			"max":[
				51.580177307128906,
				61.4158935546875,
				41.452571868896484
			],
			"min":[
				-43.67330551147461,
				-43.40411376953125,
				-50.93705749511719
			],
			"type":"VEC3"
		},
		{
			"bufferView":1,
			"componentType":5126,
			"count":5851419,
			"type":"VEC3"
		},
		{
			"bufferView":2,
			"componentType":5126,
			"count":5851419,
			"type":"VEC2"
		},
		{
			"bufferView":3,
			"componentType":5121,
			"count":5851419,
			"normalized":true,
			"type":"VEC4"
		},
		{
			"bufferView":4,
			"componentType":5126,
			"count":5851419,
			"type":"VEC3"
		},
		{
			"bufferView":5,
			"componentType":5125,
			"count":5851977,
			"type":"SCALAR"
		}
	],
	"bufferViews":[
		{
			"buffer":0,
			"byteLength":70217028,
			"byteOffset":0,
			"target":34962
		},
		{
			"buffer":0,
			"byteLength":70217028,
			"byteOffset":70217028,
			"target":34962
		},
		{
			"buffer":0,
			"byteLength":46811352,
			"byteOffset":140434056,
			"target":34962
		},
		{
			"buffer":0,
			"byteLength":23405676,
			"byteOffset":187245408,
			"target":34962
		},
		{
			"buffer":0,
			"byteLength":70217028,
			"byteOffset":210651084,
			"target":34962
		},
		{
			"buffer":0,
			"byteLength":23407908,
			"byteOffset":280868112,
			"target":34963
		}
	],
	"samplers":[
		{
			"magFilter":9729,
			"minFilter":9987
		}
	],
	"buffers":[
		{
			"byteLength":304276020,
			"uri":"modelo_espinoza.bin"
		}
	]
}
