{
	"asset":{
		"generator":"Khronos glTF Blender I/O v4.2.60",
		"version":"2.0"
	},
	"extensionsUsed":[
		"KHR_materials_specular"
	],
	"scene":0,
	"scenes":[
		{
			"name":"Scene",
			"nodes":[
				0,
				1
			]
		}
	],
	"nodes":[
		{
			"mesh":0,
			"name":"modelo_abadia_sarria",
			"rotation":[
				0.22779829800128937,
				-0.41838937997817993,
				-0.7306605577468872,
				0.4890742599964142
			],
			"scale":[
				0.3469044864177704,
				0.31400740146636963,
				0.3160367012023926
			],
			"translation":[
				-0.2788820266723633,
				0.24587631225585938,
				-0.07381057739257812
			]
		},
		{
			"name":"B\u00e9zierCircle",
			"scale":[
				45.2756233215332,
				45.2756233215332,
				45.2756233215332
			],
			"translation":[
				-0.4090614318847656,
				-1.141564130783081,
				0.36103391647338867
			]
		}
	],
	"materials":[
		{
			"doubleSided":true,
			"extensions":{
				"KHR_materials_specular":{
					"specularFactor":0
				}
			},
			"name":"modelo_abadia_sarria.001",
			"pbrMetallicRoughness":{
				"baseColorTexture":{
					"index":0
				},
				"metallicFactor":0
			}
		}
	],
	"meshes":[
		{
			"name":"modelo_abadia_sarria.001",
			"primitives":[
				{
					"attributes":{
						"POSITION":0,
						"NORMAL":1,
						"TEXCOORD_0":2
					},
					"indices":3,
					"material":0
				}
			]
		}
	],
	"textures":[
		{
			"sampler":0,
			"source":0
		}
	],
	"images":[
		{
			"mimeType":"image/png",
			"name":"modelo_abadia_sarria",
			"uri":"modelo_abadia_sarria.png"
		}
	],
	"accessors":[
		{
			"bufferView":0,
			"componentType":5126,
			"count":81217,
			"max":[
				24.08877182006836,
				22.132701873779297,
				18.13361358642578
			],
			"min":[
				-21.846351623535156,
				-20.141773223876953,
				-25.728382110595703
			],
			"type":"VEC3"
		},
		{
			"bufferView":1,
			"componentType":5126,
			"count":81217,
			"type":"VEC3"
		},
		{
			"bufferView":2,
			"componentType":5126,
			"count":81217,
			"type":"VEC2"
		},
		{
			"bufferView":3,
			"componentType":5125,
			"count":81261,
			"type":"SCALAR"
		}
	],
	"bufferViews":[
		{
			"buffer":0,
			"byteLength":974604,
			"byteOffset":0,
			"target":34962
		},
		{
			"buffer":0,
			"byteLength":974604,
			"byteOffset":974604,
			"target":34962
		},
		{
			"buffer":0,
			"byteLength":649736,
			"byteOffset":1949208,
			"target":34962
		},
		{
			"buffer":0,
			"byteLength":325044,
			"byteOffset":2598944,
			"target":34963
		}
	],
	"samplers":[
		{
			"magFilter":9729,
			"minFilter":9987
		}
	],
	"buffers":[
		{
			"byteLength":2923988,
			"uri":"modeloabadia.bin"
		}
	]
}
