{
	"asset":{
		"generator":"Khronos glTF Blender I/O v4.2.60",
		"version":"2.0"
	},
	"extensionsUsed":[
		"KHR_materials_specular"
	],
	"scene":0,
	"scenes":[
		{
			"name":"Scene",
			"nodes":[
				0,
				1
			]
		}
	],
	"nodes":[
		{
			"mesh":0,
			"name":"modelohurtado",
			"rotation":[
				0.6126799583435059,
				0.6501985788345337,
				0.3252972662448883,
				0.30991438031196594
			],
			"translation":[
				0.25015830993652344,
				-0.36554914712905884,
				-0.5668430328369141
			]
		},
		{
			"name":"B\u00e9zierCircle",
			"scale":[
				35.43864822387695,
				35.43864822387695,
				35.43864822387695
			],
			"translation":[
				-0.12261748313903809,
				4.740170955657959,
				0.2462940216064453
			]
		}
	],
	"materials":[
		{
			"doubleSided":true,
			"extensions":{
				"KHR_materials_specular":{
					"specularFactor":0
				}
			},
			"name":"modelohurtado",
			"pbrMetallicRoughness":{
				"baseColorTexture":{
					"index":0
				},
				"metallicFactor":0
			}
		}
	],
	"meshes":[
		{
			"name":"modelohurtado",
			"primitives":[
				{
					"attributes":{
						"POSITION":0,
						"NORMAL":1,
						"TEXCOORD_0":2,
						"COLOR_0":3,
						"COLOR_1":4
					},
					"indices":5,
					"material":0
				}
			]
		}
	],
	"textures":[
		{
			"sampler":0,
			"source":0
		}
	],
	"images":[
		{
			"mimeType":"image/png",
			"name":"modelohurtado",
			"uri":"modelohurtado.png"
		}
	],
	"accessors":[
		{
			"bufferView":0,
			"componentType":5126,
			"count":41186,
			"max":[
				5.286474227905273,
				4.738208770751953,
				4.9988603591918945
			],
			"min":[
				-5.6045708656311035,
				-5.410453796386719,
				-5.172430515289307
			],
			"type":"VEC3"
		},
		{
			"bufferView":1,
			"componentType":5126,
			"count":41186,
			"type":"VEC3"
		},
		{
			"bufferView":2,
			"componentType":5126,
			"count":41186,
			"type":"VEC2"
		},
		{
			"bufferView":3,
			"componentType":5121,
			"count":41186,
			"normalized":true,
			"type":"VEC4"
		},
		{
			"bufferView":4,
			"componentType":5126,
			"count":41186,
			"type":"VEC3"
		},
		{
			"bufferView":5,
			"componentType":5123,
			"count":41196,
			"type":"SCALAR"
		}
	],
	"bufferViews":[
		{
			"buffer":0,
			"byteLength":494232,
			"byteOffset":0,
			"target":34962
		},
		{
			"buffer":0,
			"byteLength":494232,
			"byteOffset":494232,
			"target":34962
		},
		{
			"buffer":0,
			"byteLength":329488,
			"byteOffset":988464,
			"target":34962
		},
		{
			"buffer":0,
			"byteLength":164744,
			"byteOffset":1317952,
			"target":34962
		},
		{
			"buffer":0,
			"byteLength":494232,
			"byteOffset":1482696,
			"target":34962
		},
		{
			"buffer":0,
			"byteLength":82392,
			"byteOffset":1976928,
			"target":34963
		}
	],
	"samplers":[
		{
			"magFilter":9729,
			"minFilter":9987
		}
	],
	"buffers":[
		{
			"byteLength":2059320,
			"uri":"modelohurtado.bin"
		}
	]
}
