{
	"asset":{
		"generator":"Khronos glTF Blender I/O v4.2.60",
		"version":"2.0"
	},
	"extensionsUsed":[
		"KHR_materials_specular"
	],
	"scene":0,
	"scenes":[
		{
			"name":"Scene",
			"nodes":[
				0,
				1
			]
		}
	],
	"nodes":[
		{
			"name":"B\u00e9zierCircle",
			"scale":[
				35.43864822387695,
				35.43864822387695,
				35.43864822387695
			],
			"translation":[
				-0.12261748313903809,
				10.33407974243164,
				0.2462940216064453
			]
		},
		{
			"mesh":0,
			"name":"modelo_chaguezac",
			"rotation":[
				0.7390488386154175,
				-0.6735614538192749,
				0.0004552770114969462,
				0.01102900318801403
			],
			"translation":[
				0.38153648376464844,
				-0.0854102075099945,
				-0.8958687782287598
			]
		}
	],
	"materials":[
		{
			"doubleSided":true,
			"extensions":{
				"KHR_materials_specular":{
					"specularFactor":0
				}
			},
			"name":"modelo_chaguezac",
			"pbrMetallicRoughness":{
				"baseColorTexture":{
					"index":0
				},
				"metallicFactor":0
			}
		}
	],
	"meshes":[
		{
			"name":"modelo_chaguezac",
			"primitives":[
				{
					"attributes":{
						"POSITION":0,
						"NORMAL":1,
						"TEXCOORD_0":2,
						"COLOR_0":3,
						"COLOR_1":4
					},
					"indices":5,
					"material":0
				}
			]
		}
	],
	"textures":[
		{
			"sampler":0,
			"source":0
		}
	],
	"images":[
		{
			"mimeType":"image/png",
			"name":"modelo_chaguezac",
			"uri":"modelo_chaguezac.png"
		}
	],
	"accessors":[
		{
			"bufferView":0,
			"componentType":5126,
			"count":477411,
			"max":[
				4.507268905639648,
				9.688758850097656,
				5.215039253234863
			],
			"min":[
				-5.783237934112549,
				-5.265920639038086,
				-9.022987365722656
			],
			"type":"VEC3"
		},
		{
			"bufferView":1,
			"componentType":5126,
			"count":477411,
			"type":"VEC3"
		},
		{
			"bufferView":2,
			"componentType":5126,
			"count":477411,
			"type":"VEC2"
		},
		{
			"bufferView":3,
			"componentType":5121,
			"count":477411,
			"normalized":true,
			"type":"VEC4"
		},
		{
			"bufferView":4,
			"componentType":5126,
			"count":477411,
			"type":"VEC3"
		},
		{
			"bufferView":5,
			"componentType":5125,
			"count":477540,
			"type":"SCALAR"
		}
	],
	"bufferViews":[
		{
			"buffer":0,
			"byteLength":5728932,
			"byteOffset":0,
			"target":34962
		},
		{
			"buffer":0,
			"byteLength":5728932,
			"byteOffset":5728932,
			"target":34962
		},
		{
			"buffer":0,
			"byteLength":3819288,
			"byteOffset":11457864,
			"target":34962
		},
		{
			"buffer":0,
			"byteLength":1909644,
			"byteOffset":15277152,
			"target":34962
		},
		{
			"buffer":0,
			"byteLength":5728932,
			"byteOffset":17186796,
			"target":34962
		},
		{
			"buffer":0,
			"byteLength":1910160,
			"byteOffset":22915728,
			"target":34963
		}
	],
	"samplers":[
		{
			"magFilter":9729,
			"minFilter":9987
		}
	],
	"buffers":[
		{
			"byteLength":24825888,
			"uri":"modelochaguezac.bin"
		}
	]
}
