{
	"asset":{
		"generator":"Khronos glTF Blender I/O v4.2.60",
		"version":"2.0"
	},
	"extensionsUsed":[
		"KHR_materials_specular"
	],
	"scene":0,
	"scenes":[
		{
			"name":"Scene",
			"nodes":[
				0,
				1
			]
		}
	],
	"nodes":[
		{
			"mesh":0,
			"name":"modelomolina",
			"rotation":[
				0.5356740951538086,
				0,
				0,
				0.8444247841835022
			],
			"translation":[
				-0.0718073844909668,
				0.4337894916534424,
				-0.2616159915924072
			]
		},
		{
			"name":"B\u00e9zierCircle",
			"scale":[
				18.244535446166992,
				18.244535446166992,
				18.244535446166992
			],
			"translation":[
				-0.12261748313903809,
				6.062341690063477,
				0.2462940216064453
			]
		}
	],
	"materials":[
		{
			"doubleSided":true,
			"extensions":{
				"KHR_materials_specular":{
					"specularFactor":0
				}
			},
			"name":"modelomolina",
			"pbrMetallicRoughness":{
				"baseColorTexture":{
					"index":0
				},
				"metallicFactor":0
			}
		}
	],
	"meshes":[
		{
			"name":"modelomolina",
			"primitives":[
				{
					"attributes":{
						"POSITION":0,
						"NORMAL":1,
						"TEXCOORD_0":2,
						"COLOR_0":3,
						"COLOR_1":4
					},
					"indices":5,
					"material":0
				}
			]
		}
	],
	"textures":[
		{
			"sampler":0,
			"source":0
		}
	],
	"images":[
		{
			"mimeType":"image/png",
			"name":"modelomolina",
			"uri":"modelomolina.png"
		}
	],
	"accessors":[
		{
			"bufferView":0,
			"componentType":5126,
			"count":454200,
			"max":[
				3.27014422416687,
				3.326766014099121,
				2.7122740745544434
			],
			"min":[
				-3.3418235778808594,
				-3.0605459213256836,
				-2.4948980808258057
			],
			"type":"VEC3"
		},
		{
			"bufferView":1,
			"componentType":5126,
			"count":454200,
			"type":"VEC3"
		},
		{
			"bufferView":2,
			"componentType":5126,
			"count":454200,
			"type":"VEC2"
		},
		{
			"bufferView":3,
			"componentType":5121,
			"count":454200,
			"normalized":true,
			"type":"VEC4"
		},
		{
			"bufferView":4,
			"componentType":5126,
			"count":454200,
			"type":"VEC3"
		},
		{
			"bufferView":5,
			"componentType":5125,
			"count":454296,
			"type":"SCALAR"
		}
	],
	"bufferViews":[
		{
			"buffer":0,
			"byteLength":5450400,
			"byteOffset":0,
			"target":34962
		},
		{
			"buffer":0,
			"byteLength":5450400,
			"byteOffset":5450400,
			"target":34962
		},
		{
			"buffer":0,
			"byteLength":3633600,
			"byteOffset":10900800,
			"target":34962
		},
		{
			"buffer":0,
			"byteLength":1816800,
			"byteOffset":14534400,
			"target":34962
		},
		{
			"buffer":0,
			"byteLength":5450400,
			"byteOffset":16351200,
			"target":34962
		},
		{
			"buffer":0,
			"byteLength":1817184,
			"byteOffset":21801600,
			"target":34963
		}
	],
	"samplers":[
		{
			"magFilter":9729,
			"minFilter":9987
		}
	],
	"buffers":[
		{
			"byteLength":23618784,
			"uri":"modelo_molina.bin"
		}
	]
}
