{
	"asset":{
		"generator":"Khronos glTF Blender I/O v4.2.60",
		"version":"2.0"
	},
	"extensionsUsed":[
		"KHR_materials_specular"
	],
	"scene":0,
	"scenes":[
		{
			"name":"Scene",
			"nodes":[
				20
			]
		}
	],
	"nodes":[
		{
			"name":"MCH_Rotation_target"
		},
		{
			"name":"MCH_Rotation_target.001"
		},
		{
			"name":"MCH_Rotation_target.002"
		},
		{
			"name":"MCH_Rotation_target.003"
		},
		{
			"name":"MCH_Rotation_target.004"
		},
		{
			"name":"MCH_Rotation_target.005"
		},
		{
			"name":"MCH_Rotation_target.006"
		},
		{
			"name":"MCH_Rotation_target.007"
		},
		{
			"name":"MCH_Rotation_target.008"
		},
		{
			"name":"MCH_Rotation_target.009"
		},
		{
			"name":"MCH_Rotation_target.010"
		},
		{
			"name":"MCH_Rotation_target.011"
		},
		{
			"name":"MCH_Rotation_target.012"
		},
		{
			"name":"MCH_Rotation_target.013"
		},
		{
			"name":"MCH_Rotation_target.014"
		},
		{
			"name":"MCH_Rotation_target.015"
		},
		{
			"name":"MCH_Rotation_target.016"
		},
		{
			"name":"MCH_Rotation_target.017"
		},
		{
			"name":"MCH_Rotation_target.018"
		},
		{
			"name":"MCH_Rotation_target.019"
		},
		{
			"children":[
				0,
				1,
				2,
				3,
				4,
				5,
				6,
				7,
				8,
				9,
				10,
				11,
				12,
				13,
				14,
				15,
				16,
				17,
				18,
				19
			],
			"mesh":0,
			"name":"modelo1",
			"rotation":[
				0.7032915949821472,
				0.010610229335725307,
				0.01023921463638544,
				0.710748553276062
			],
			"translation":[
				0.0388639010488987,
				0.0027892589569091797,
				0.013850361108779907
			]
		}
	],
	"animations":[
		{
			"channels":[
				{
					"sampler":0,
					"target":{
						"node":0,
						"path":"rotation"
					}
				}
			],
			"name":"MCH_Rotation_targetAction",
			"samplers":[
				{
					"input":4,
					"interpolation":"LINEAR",
					"output":5
				}
			]
		},
		{
			"channels":[
				{
					"sampler":0,
					"target":{
						"node":1,
						"path":"rotation"
					}
				}
			],
			"name":"MCH_Rotation_target.001Action",
			"samplers":[
				{
					"input":4,
					"interpolation":"LINEAR",
					"output":6
				}
			]
		},
		{
			"channels":[
				{
					"sampler":0,
					"target":{
						"node":2,
						"path":"rotation"
					}
				}
			],
			"name":"MCH_Rotation_target.002Action",
			"samplers":[
				{
					"input":4,
					"interpolation":"LINEAR",
					"output":7
				}
			]
		},
		{
			"channels":[
				{
					"sampler":0,
					"target":{
						"node":3,
						"path":"rotation"
					}
				}
			],
			"name":"MCH_Rotation_target.003Action",
			"samplers":[
				{
					"input":4,
					"interpolation":"LINEAR",
					"output":8
				}
			]
		},
		{
			"channels":[
				{
					"sampler":0,
					"target":{
						"node":4,
						"path":"rotation"
					}
				}
			],
			"name":"MCH_Rotation_target.004Action",
			"samplers":[
				{
					"input":4,
					"interpolation":"LINEAR",
					"output":9
				}
			]
		},
		{
			"channels":[
				{
					"sampler":0,
					"target":{
						"node":5,
						"path":"rotation"
					}
				}
			],
			"name":"MCH_Rotation_target.005Action",
			"samplers":[
				{
					"input":4,
					"interpolation":"LINEAR",
					"output":10
				}
			]
		},
		{
			"channels":[
				{
					"sampler":0,
					"target":{
						"node":6,
						"path":"rotation"
					}
				}
			],
			"name":"MCH_Rotation_target.006Action",
			"samplers":[
				{
					"input":4,
					"interpolation":"LINEAR",
					"output":11
				}
			]
		},
		{
			"channels":[
				{
					"sampler":0,
					"target":{
						"node":7,
						"path":"rotation"
					}
				}
			],
			"name":"MCH_Rotation_target.007Action",
			"samplers":[
				{
					"input":4,
					"interpolation":"LINEAR",
					"output":12
				}
			]
		},
		{
			"channels":[
				{
					"sampler":0,
					"target":{
						"node":8,
						"path":"rotation"
					}
				}
			],
			"name":"MCH_Rotation_target.008Action",
			"samplers":[
				{
					"input":4,
					"interpolation":"LINEAR",
					"output":13
				}
			]
		},
		{
			"channels":[
				{
					"sampler":0,
					"target":{
						"node":9,
						"path":"rotation"
					}
				}
			],
			"name":"MCH_Rotation_target.009Action",
			"samplers":[
				{
					"input":4,
					"interpolation":"LINEAR",
					"output":14
				}
			]
		},
		{
			"channels":[
				{
					"sampler":0,
					"target":{
						"node":10,
						"path":"rotation"
					}
				}
			],
			"name":"MCH_Rotation_target.010Action",
			"samplers":[
				{
					"input":4,
					"interpolation":"LINEAR",
					"output":15
				}
			]
		},
		{
			"channels":[
				{
					"sampler":0,
					"target":{
						"node":11,
						"path":"rotation"
					}
				}
			],
			"name":"MCH_Rotation_target.011Action",
			"samplers":[
				{
					"input":4,
					"interpolation":"LINEAR",
					"output":16
				}
			]
		},
		{
			"channels":[
				{
					"sampler":0,
					"target":{
						"node":12,
						"path":"rotation"
					}
				}
			],
			"name":"MCH_Rotation_target.012Action",
			"samplers":[
				{
					"input":4,
					"interpolation":"LINEAR",
					"output":17
				}
			]
		},
		{
			"channels":[
				{
					"sampler":0,
					"target":{
						"node":13,
						"path":"rotation"
					}
				}
			],
			"name":"MCH_Rotation_target.013Action",
			"samplers":[
				{
					"input":4,
					"interpolation":"LINEAR",
					"output":18
				}
			]
		},
		{
			"channels":[
				{
					"sampler":0,
					"target":{
						"node":14,
						"path":"rotation"
					}
				}
			],
			"name":"MCH_Rotation_target.014Action",
			"samplers":[
				{
					"input":4,
					"interpolation":"LINEAR",
					"output":19
				}
			]
		},
		{
			"channels":[
				{
					"sampler":0,
					"target":{
						"node":15,
						"path":"rotation"
					}
				}
			],
			"name":"MCH_Rotation_target.015Action",
			"samplers":[
				{
					"input":4,
					"interpolation":"LINEAR",
					"output":20
				}
			]
		},
		{
			"channels":[
				{
					"sampler":0,
					"target":{
						"node":16,
						"path":"rotation"
					}
				}
			],
			"name":"MCH_Rotation_target.016Action",
			"samplers":[
				{
					"input":4,
					"interpolation":"LINEAR",
					"output":21
				}
			]
		},
		{
			"channels":[
				{
					"sampler":0,
					"target":{
						"node":17,
						"path":"rotation"
					}
				}
			],
			"name":"MCH_Rotation_target.017Action",
			"samplers":[
				{
					"input":4,
					"interpolation":"LINEAR",
					"output":22
				}
			]
		},
		{
			"channels":[
				{
					"sampler":0,
					"target":{
						"node":18,
						"path":"rotation"
					}
				}
			],
			"name":"MCH_Rotation_target.018Action",
			"samplers":[
				{
					"input":4,
					"interpolation":"LINEAR",
					"output":23
				}
			]
		},
		{
			"channels":[
				{
					"sampler":0,
					"target":{
						"node":19,
						"path":"rotation"
					}
				}
			],
			"name":"MCH_Rotation_target.019Action",
			"samplers":[
				{
					"input":4,
					"interpolation":"LINEAR",
					"output":24
				}
			]
		}
	],
	"materials":[
		{
			"doubleSided":true,
			"extensions":{
				"KHR_materials_specular":{
					"specularFactor":0
				}
			},
			"name":"modelo1.1001",
			"pbrMetallicRoughness":{
				"baseColorTexture":{
					"index":0
				},
				"metallicFactor":0
			}
		}
	],
	"meshes":[
		{
			"name":"modelo1",
			"primitives":[
				{
					"attributes":{
						"POSITION":0,
						"NORMAL":1,
						"TEXCOORD_0":2
					},
					"indices":3,
					"material":0
				}
			]
		}
	],
	"textures":[
		{
			"sampler":0,
			"source":0
		}
	],
	"images":[
		{
			"mimeType":"image/jpeg",
			"name":"modelo1.1001",
			"uri":"modelo1_1001.jpg"
		}
	],
	"accessors":[
		{
			"bufferView":0,
			"componentType":5126,
			"count":95250,
			"max":[
				1.2774319648742676,
				1.264883041381836,
				0.8890690207481384
			],
			"min":[
				-1.2613199949264526,
				-1.2881029844284058,
				-0.8813989758491516
			],
			"type":"VEC3"
		},
		{
			"bufferView":1,
			"componentType":5126,
			"count":95250,
			"type":"VEC3"
		},
		{
			"bufferView":2,
			"componentType":5126,
			"count":95250,
			"type":"VEC2"
		},
		{
			"bufferView":3,
			"componentType":5125,
			"count":210858,
			"type":"SCALAR"
		},
		{
			"bufferView":4,
			"componentType":5126,
			"count":600,
			"max":[
				24.975023809106993
			],
			"min":[
				0.04162503968184499
			],
			"type":"SCALAR"
		},
		{
			"bufferView":5,
			"componentType":5126,
			"count":600,
			"type":"VEC4"
		},
		{
			"bufferView":6,
			"componentType":5126,
			"count":600,
			"type":"VEC4"
		},
		{
			"bufferView":7,
			"componentType":5126,
			"count":600,
			"type":"VEC4"
		},
		{
			"bufferView":8,
			"componentType":5126,
			"count":600,
			"type":"VEC4"
		},
		{
			"bufferView":9,
			"componentType":5126,
			"count":600,
			"type":"VEC4"
		},
		{
			"bufferView":10,
			"componentType":5126,
			"count":600,
			"type":"VEC4"
		},
		{
			"bufferView":11,
			"componentType":5126,
			"count":600,
			"type":"VEC4"
		},
		{
			"bufferView":12,
			"componentType":5126,
			"count":600,
			"type":"VEC4"
		},
		{
			"bufferView":13,
			"componentType":5126,
			"count":600,
			"type":"VEC4"
		},
		{
			"bufferView":14,
			"componentType":5126,
			"count":600,
			"type":"VEC4"
		},
		{
			"bufferView":15,
			"componentType":5126,
			"count":600,
			"type":"VEC4"
		},
		{
			"bufferView":16,
			"componentType":5126,
			"count":600,
			"type":"VEC4"
		},
		{
			"bufferView":17,
			"componentType":5126,
			"count":600,
			"type":"VEC4"
		},
		{
			"bufferView":18,
			"componentType":5126,
			"count":600,
			"type":"VEC4"
		},
		{
			"bufferView":19,
			"componentType":5126,
			"count":600,
			"type":"VEC4"
		},
		{
			"bufferView":20,
			"componentType":5126,
			"count":600,
			"type":"VEC4"
		},
		{
			"bufferView":21,
			"componentType":5126,
			"count":600,
			"type":"VEC4"
		},
		{
			"bufferView":22,
			"componentType":5126,
			"count":600,
			"type":"VEC4"
		},
		{
			"bufferView":23,
			"componentType":5126,
			"count":600,
			"type":"VEC4"
		},
		{
			"bufferView":24,
			"componentType":5126,
			"count":600,
			"type":"VEC4"
		}
	],
	"bufferViews":[
		{
			"buffer":0,
			"byteLength":1143000,
			"byteOffset":0,
			"target":34962
		},
		{
			"buffer":0,
			"byteLength":1143000,
			"byteOffset":1143000,
			"target":34962
		},
		{
			"buffer":0,
			"byteLength":762000,
			"byteOffset":2286000,
			"target":34962
		},
		{
			"buffer":0,
			"byteLength":843432,
			"byteOffset":3048000,
			"target":34963
		},
		{
			"buffer":0,
			"byteLength":2400,
			"byteOffset":3891432
		},
		{
			"buffer":0,
			"byteLength":9600,
			"byteOffset":3893832
		},
		{
			"buffer":0,
			"byteLength":9600,
			"byteOffset":3903432
		},
		{
			"buffer":0,
			"byteLength":9600,
			"byteOffset":3913032
		},
		{
			"buffer":0,
			"byteLength":9600,
			"byteOffset":3922632
		},
		{
			"buffer":0,
			"byteLength":9600,
			"byteOffset":3932232
		},
		{
			"buffer":0,
			"byteLength":9600,
			"byteOffset":3941832
		},
		{
			"buffer":0,
			"byteLength":9600,
			"byteOffset":3951432
		},
		{
			"buffer":0,
			"byteLength":9600,
			"byteOffset":3961032
		},
		{
			"buffer":0,
			"byteLength":9600,
			"byteOffset":3970632
		},
		{
			"buffer":0,
			"byteLength":9600,
			"byteOffset":3980232
		},
		{
			"buffer":0,
			"byteLength":9600,
			"byteOffset":3989832
		},
		{
			"buffer":0,
			"byteLength":9600,
			"byteOffset":3999432
		},
		{
			"buffer":0,
			"byteLength":9600,
			"byteOffset":4009032
		},
		{
			"buffer":0,
			"byteLength":9600,
			"byteOffset":4018632
		},
		{
			"buffer":0,
			"byteLength":9600,
			"byteOffset":4028232
		},
		{
			"buffer":0,
			"byteLength":9600,
			"byteOffset":4037832
		},
		{
			"buffer":0,
			"byteLength":9600,
			"byteOffset":4047432
		},
		{
			"buffer":0,
			"byteLength":9600,
			"byteOffset":4057032
		},
		{
			"buffer":0,
			"byteLength":9600,
			"byteOffset":4066632
		},
		{
			"buffer":0,
			"byteLength":9600,
			"byteOffset":4076232
		}
	],
	"samplers":[
		{
			"magFilter":9729,
			"minFilter":9987
		}
	],
	"buffers":[
		{
			"byteLength":4085832,
			"uri":"untitled1.bin"
		}
	]
}
